<svg width="513" height="513" viewBox="0 0 513 513" fill="none" xmlns="http://www.w3.org/2000/svg">
<path d="M244.12 325.04H136.211V512.469H0.761719V0.46875H245.023C322.681 0.46875 382.579 13.9486 424.719 40.9083C466.859 67.868 487.929 105.963 487.929 155.194C487.929 190.124 478.147 219.311 458.582 242.754C439.318 265.963 409.97 284.483 370.539 298.315L512.762 507.546V512.469H367.379L244.12 325.04ZM136.211 239.59H245.474C279.487 239.59 305.825 232.908 324.487 219.546C343.149 205.949 352.48 187.311 352.48 163.634C352.48 139.487 343.6 120.498 325.841 106.667C308.383 92.8351 281.444 85.9193 245.023 85.9193H136.211V239.59Z" fill="black"/>
</svg>
